<svg width="48" height="48" viewBox="0 0 48 48" fill="none" xmlns="http://www.w3.org/2000/svg">
<g filter="url(#filter0_d_1481_1579)">
<circle cx="24" cy="20" r="20" fill="#FAFAFA"/>
<path d="M24 30C22.6167 30 21.3167 29.7375 20.1 29.2125C18.8833 28.6875 17.825 27.975 16.925 27.075C16.025 26.175 15.3125 25.1167 14.7875 23.9C14.2625 22.6833 14 21.3833 14 20C14 18.6167 14.2625 17.3167 14.7875 16.1C15.3125 14.8833 16.025 13.825 16.925 12.925C17.825 12.025 18.8833 11.3125 20.1 10.7875C21.3167 10.2625 22.6167 10 24 10C25.3833 10 26.6833 10.2625 27.9 10.7875C29.1167 11.3125 30.175 12.025 31.075 12.925C31.975 13.825 32.6875 14.8833 33.2125 16.1C33.7375 17.3167 34 18.6167 34 20C34 21.3833 33.7375 22.6833 33.2125 23.9C32.6875 25.1167 31.975 26.175 31.075 27.075C30.175 27.975 29.1167 28.6875 27.9 29.2125C26.6833 29.7375 25.3833 30 24 30ZM24 28C26.2333 28 28.125 27.225 29.675 25.675C31.225 24.125 32 22.2333 32 20C32 17.7667 31.225 15.875 29.675 14.325C28.125 12.775 26.2333 12 24 12C21.7667 12 19.875 12.775 18.325 14.325C16.775 15.875 16 17.7667 16 20C16 22.2333 16.775 24.125 18.325 25.675C19.875 27.225 21.7667 28 24 28ZM20 24V20.925L25.525 15.425C25.675 15.275 25.8417 15.1667 26.025 15.1C26.2083 15.0333 26.3917 15 26.575 15C26.775 15 26.9667 15.0375 27.15 15.1125C27.3333 15.1875 27.5 15.3 27.65 15.45L28.575 16.375C28.7083 16.525 28.8125 16.6917 28.8875 16.875C28.9625 17.0583 29 17.2417 29 17.425C29 17.6083 28.9667 17.7958 28.9 17.9875C28.8333 18.1792 28.725 18.35 28.575 18.5L23.075 24H20ZM21.5 22.5H22.45L25.475 19.45L25.025 18.975L24.55 18.525L21.5 21.55V22.5ZM25.025 18.975L24.55 18.525L25.475 19.45L25.025 18.975Z" fill="#81A895"/>
</g>
<defs>
<filter id="filter0_d_1481_1579" x="0" y="0" width="48" height="48" filterUnits="userSpaceOnUse" color-interpolation-filters="sRGB">
<feFlood flood-opacity="0" result="BackgroundImageFix"/>
<feColorMatrix in="SourceAlpha" type="matrix" values="0 0 0 0 0 0 0 0 0 0 0 0 0 0 0 0 0 0 127 0" result="hardAlpha"/>
<feOffset dy="4"/>
<feGaussianBlur stdDeviation="2"/>
<feComposite in2="hardAlpha" operator="out"/>
<feColorMatrix type="matrix" values="0 0 0 0 0 0 0 0 0 0 0 0 0 0 0 0 0 0 0.25 0"/>
<feBlend mode="normal" in2="BackgroundImageFix" result="effect1_dropShadow_1481_1579"/>
<feBlend mode="normal" in="SourceGraphic" in2="effect1_dropShadow_1481_1579" result="shape"/>
</filter>
</defs>
</svg>
