<svg width="48" height="48" viewBox="0 0 48 48" fill="none" xmlns="http://www.w3.org/2000/svg">
<rect x="21.5996" y="19.7998" width="3" height="2.4" rx="1.2" transform="rotate(90 21.5996 19.7998)" fill="#25D07D"/>
<rect x="28.7998" y="19.7998" width="3" height="2.4" rx="1.2" transform="rotate(90 28.7998 19.7998)" fill="#25D07D"/>
<path d="M20.4004 26.4001C21.3146 27.6787 22.429 28.2359 24.0004 28.2001C25.6276 28.163 26.7672 27.4982 27.6004 26.1001" stroke="#25D07D" stroke-width="2.4" stroke-linecap="round"/>
<path d="M12.8056 17.0049C11.1401 19.6703 10.4803 22.8425 10.9448 25.9509C11.4094 29.0593 12.9678 31.9 15.3399 33.962C17.7119 36.024 20.7418 37.1719 23.8846 37.1993C26.4234 37.2215 28.9013 36.5113 31.0292 35.1725C31.5174 34.8653 32.2053 35.3049 32.0738 35.8666L31.1998 39.5998" stroke="#25D07D" stroke-width="2.4" stroke-linecap="round"/>
<path d="M35.1947 30.9948C36.8602 28.3294 37.52 25.1572 37.0554 22.0488C36.5909 18.9404 35.0324 16.0997 32.6604 14.0377C30.2884 11.9758 27.2585 10.8278 24.1156 10.8004C21.5768 10.7782 19.0989 11.4885 16.971 12.8272C16.4828 13.1344 15.7949 12.6949 15.9264 12.1332L16.8003 8.3999" stroke="#25D07D" stroke-width="2.4" stroke-linecap="round"/>
</svg>
