<svg width="70" height="70" viewBox="0 0 70 70" fill="none" xmlns="http://www.w3.org/2000/svg">
<rect width="70" height="70" fill="#81A895"/>
<rect x="11.3598" y="12.5878" width="44.8246" height="44.8246" rx="8.90351" stroke="#FAFAFA" stroke-width="3.07018"/>
<rect x="21.4912" y="27.6316" width="2.45614" height="9.21053" rx="1.22807" fill="#FAFAFA"/>
<rect x="30.7017" y="27.6316" width="2.45614" height="9.21053" rx="1.22807" fill="#FAFAFA"/>
<path d="M36.2282 38.0702C36.9064 38.0702 37.4633 38.6217 37.3883 39.2958C37.2826 40.2457 37.0543 41.1776 36.7084 42.0649C36.2147 43.3313 35.491 44.4821 34.5787 45.4514C33.6664 46.4207 32.5834 47.1896 31.3914 47.7142C30.1994 48.2388 28.9219 48.5088 27.6317 48.5088C26.3415 48.5088 25.064 48.2388 23.872 47.7142C22.68 47.1896 21.597 46.4207 20.6847 45.4514C19.7724 44.4821 19.0487 43.3313 18.555 42.0649C18.2091 41.1776 17.9808 40.2457 17.8751 39.2958C17.8001 38.6217 18.357 38.0702 19.0352 38.0702V38.0702C19.7134 38.0702 20.2539 38.623 20.3538 39.2938C20.4442 39.9008 20.6018 40.4958 20.8242 41.0662C21.1945 42.016 21.7372 42.8791 22.4214 43.6061C23.1057 44.3331 23.9179 44.9097 24.8119 45.3032C25.7059 45.6966 26.6641 45.8991 27.6317 45.8991C28.5993 45.8991 29.5575 45.6966 30.4515 45.3032C31.3454 44.9098 32.1577 44.3331 32.842 43.6061C33.5262 42.8791 34.0689 42.016 34.4392 41.0662C34.6616 40.4958 34.8192 39.9008 34.9096 39.2938C35.0095 38.623 35.5499 38.0702 36.2282 38.0702V38.0702Z" fill="#FAFAFA"/>
<rect x="3.68408" y="9.82446" width="15.9649" height="20.2632" fill="#81A895"/>
<rect x="43.5967" y="46.0527" width="15.9649" height="20.2632" fill="#81A895"/>
<line x1="19.6489" y1="12.219" x2="25.7276" y2="6.14031" stroke="#FAFAFA" stroke-width="3.07018" stroke-linecap="round"/>
<line x1="19.3422" y1="12.5877" x2="24.8685" y2="12.5877" stroke="#FAFAFA" stroke-width="3.07018" stroke-linecap="round"/>
<line x1="11.3594" y1="34.6929" x2="11.3594" y2="29.1666" stroke="#FAFAFA" stroke-width="3.07018" stroke-linecap="round"/>
<line x1="56.1842" y1="46.3597" x2="56.1842" y2="40.8334" stroke="#FAFAFA" stroke-width="3.07018" stroke-linecap="round"/>
<line x1="41.4472" y1="57.4122" x2="46.9735" y2="57.4122" stroke="#FAFAFA" stroke-width="3.07018" stroke-linecap="round"/>
<line x1="40.5264" y1="63.7981" x2="46.605" y2="57.7194" stroke="#FAFAFA" stroke-width="3.07018" stroke-linecap="round"/>
</svg>
