<svg width="64" height="64" viewBox="0 0 64 64" fill="none" xmlns="http://www.w3.org/2000/svg">
<g filter="url(#filter0_d_82_2736)">
<path d="M4 32C4 16.536 16.536 4 32 4C47.464 4 60 16.536 60 32C60 47.464 47.464 60 32 60C16.536 60 4 47.464 4 32Z" fill="#25D07D" shape-rendering="crispEdges"/>
<g clip-path="url(#clip0_82_2736)">
<path d="M22.8239 40.8695H41.1856C43.2749 40.8695 44.3395 39.8248 44.3395 37.7556V27.2389C44.3395 25.1697 43.2749 24.1351 41.1856 24.1351H38.3128C37.5192 24.1351 37.2782 23.9744 36.8262 23.4722L36.0226 22.5682C35.5204 22.0157 35.0081 21.7144 33.9735 21.7144H29.9657C28.9311 21.7144 28.4188 22.0157 27.9166 22.5682L27.113 23.4722C26.661 23.9644 26.4099 24.1351 25.6264 24.1351H22.8239C20.7246 24.1351 19.6699 25.1697 19.6699 27.2389V37.7556C19.6699 39.8248 20.7246 40.8695 22.8239 40.8695ZM22.844 39.2523C21.8597 39.2523 21.2871 38.7199 21.2871 37.6753V27.3293C21.2871 26.2847 21.8597 25.7523 22.844 25.7523H26.0282C26.9322 25.7523 27.4244 25.5815 27.9266 25.019L28.7101 24.1351C29.2826 23.4923 29.584 23.3315 30.468 23.3315H33.4713C34.3552 23.3315 34.6566 23.4923 35.229 24.1351L36.0126 25.019C36.5148 25.5815 37.007 25.7523 37.911 25.7523H41.1554C42.1499 25.7523 42.7224 26.2847 42.7224 27.3293V37.6753C42.7224 38.7199 42.1499 39.2523 41.1554 39.2523H22.844ZM32.0047 37.8058C35.0382 37.8058 37.479 35.3751 37.479 32.3115C37.479 29.2579 35.0483 26.8271 32.0047 26.8271C28.9612 26.8271 26.5204 29.2579 26.5204 32.3115C26.5204 35.3751 28.9612 37.8058 32.0047 37.8058ZM32.0047 36.2791C29.8251 36.2791 28.0371 34.5213 28.0371 32.3115C28.0371 30.1117 29.815 28.3438 32.0047 28.3438C34.1945 28.3438 35.9623 30.1117 35.9623 32.3115C35.9623 34.5213 34.1945 36.2791 32.0047 36.2791ZM37.8909 28.615C37.8909 29.3181 38.4735 29.8706 39.1566 29.8706C39.8295 29.8706 40.4021 29.3081 40.4021 28.615C40.4021 27.9521 39.8295 27.3695 39.1566 27.3695C38.4735 27.3695 37.8909 27.9521 37.8909 28.615Z" fill="white"/>
</g>
</g>
<defs>
<filter id="filter0_d_82_2736" x="0" y="0" width="64" height="64" filterUnits="userSpaceOnUse" color-interpolation-filters="sRGB">
<feFlood flood-opacity="0" result="BackgroundImageFix"/>
<feColorMatrix in="SourceAlpha" type="matrix" values="0 0 0 0 0 0 0 0 0 0 0 0 0 0 0 0 0 0 127 0" result="hardAlpha"/>
<feOffset/>
<feGaussianBlur stdDeviation="2"/>
<feComposite in2="hardAlpha" operator="out"/>
<feColorMatrix type="matrix" values="0 0 0 0 0 0 0 0 0 0 0 0 0 0 0 0 0 0 0.15 0"/>
<feBlend mode="normal" in2="BackgroundImageFix" result="effect1_dropShadow_82_2736"/>
<feBlend mode="normal" in="SourceGraphic" in2="effect1_dropShadow_82_2736" result="shape"/>
</filter>
<clipPath id="clip0_82_2736">
<rect width="24.6696" height="19.798" fill="white" transform="translate(19.6699 21.7144)"/>
</clipPath>
</defs>
</svg>
