<svg width="48" height="48" viewBox="0 0 48 48" fill="none" xmlns="http://www.w3.org/2000/svg">
<g filter="url(#filter0_d_1481_1581)">
<circle cx="24" cy="20" r="20" fill="#FAFAFA"/>
<g filter="url(#filter1_i_1481_1581)">
<path d="M15 30C14.45 30 13.9792 29.8042 13.5875 29.4125C13.1958 29.0208 13 28.55 13 28V16C13 15.45 13.1958 14.9792 13.5875 14.5875C13.9792 14.1958 14.45 14 15 14H18.15L20 12H26V14H20.875L19.05 16H15V28H31V19H33V28C33 28.55 32.8042 29.0208 32.4125 29.4125C32.0208 29.8042 31.55 30 31 30H15ZM31 16V14H29V12H31V10H33V12H35V14H33V16H31ZM23 26.5C24.25 26.5 25.3125 26.0625 26.1875 25.1875C27.0625 24.3125 27.5 23.25 27.5 22C27.5 20.75 27.0625 19.6875 26.1875 18.8125C25.3125 17.9375 24.25 17.5 23 17.5C21.75 17.5 20.6875 17.9375 19.8125 18.8125C18.9375 19.6875 18.5 20.75 18.5 22C18.5 23.25 18.9375 24.3125 19.8125 25.1875C20.6875 26.0625 21.75 26.5 23 26.5ZM23 24.5C22.3 24.5 21.7083 24.2583 21.225 23.775C20.7417 23.2917 20.5 22.7 20.5 22C20.5 21.3 20.7417 20.7083 21.225 20.225C21.7083 19.7417 22.3 19.5 23 19.5C23.7 19.5 24.2917 19.7417 24.775 20.225C25.2583 20.7083 25.5 21.3 25.5 22C25.5 22.7 25.2583 23.2917 24.775 23.775C24.2917 24.2583 23.7 24.5 23 24.5Z" fill="#81A895"/>
</g>
</g>
<defs>
<filter id="filter0_d_1481_1581" x="0" y="0" width="48" height="48" filterUnits="userSpaceOnUse" color-interpolation-filters="sRGB">
<feFlood flood-opacity="0" result="BackgroundImageFix"/>
<feColorMatrix in="SourceAlpha" type="matrix" values="0 0 0 0 0 0 0 0 0 0 0 0 0 0 0 0 0 0 127 0" result="hardAlpha"/>
<feOffset dy="4"/>
<feGaussianBlur stdDeviation="2"/>
<feComposite in2="hardAlpha" operator="out"/>
<feColorMatrix type="matrix" values="0 0 0 0 0 0 0 0 0 0 0 0 0 0 0 0 0 0 0.25 0"/>
<feBlend mode="normal" in2="BackgroundImageFix" result="effect1_dropShadow_1481_1581"/>
<feBlend mode="normal" in="SourceGraphic" in2="effect1_dropShadow_1481_1581" result="shape"/>
</filter>
<filter id="filter1_i_1481_1581" x="13" y="10" width="22" height="21" filterUnits="userSpaceOnUse" color-interpolation-filters="sRGB">
<feFlood flood-opacity="0" result="BackgroundImageFix"/>
<feBlend mode="normal" in="SourceGraphic" in2="BackgroundImageFix" result="shape"/>
<feColorMatrix in="SourceAlpha" type="matrix" values="0 0 0 0 0 0 0 0 0 0 0 0 0 0 0 0 0 0 127 0" result="hardAlpha"/>
<feOffset dy="1"/>
<feGaussianBlur stdDeviation="0.5"/>
<feComposite in2="hardAlpha" operator="arithmetic" k2="-1" k3="1"/>
<feColorMatrix type="matrix" values="0 0 0 0 0 0 0 0 0 0 0 0 0 0 0 0 0 0 0.25 0"/>
<feBlend mode="normal" in2="shape" result="effect1_innerShadow_1481_1581"/>
</filter>
</defs>
</svg>
