<svg width="24" height="24" viewBox="0 0 24 24" fill="none" xmlns="http://www.w3.org/2000/svg">
<path fill-rule="evenodd" clip-rule="evenodd" d="M8.89197 0.406398C6.18042 1.13148 3.84728 2.78253 2.25209 5H13.4856L8.89197 0.406398ZM1.60539 6C0.584366 7.76504 0 9.81428 0 12C0 12.6618 0.0535745 13.3111 0.156623 13.9438L8.10041 6H1.60539ZM0.406439 15.1082C1.13154 17.8197 2.78257 20.1528 5 21.7479V10.5146L0.406439 15.1082ZM6 22.3946C7.76504 23.4156 9.81428 24 12 24C12.6619 24 13.3112 23.9464 13.944 23.8433L6 15.8994V22.3946ZM15.1084 23.5935C17.8198 22.8684 20.1528 21.2174 21.7479 19H10.5148L15.1084 23.5935ZM22.3946 18C23.4156 16.235 24 14.1857 24 12C24 11.3381 23.9464 10.6887 23.8433 10.0559L15.8992 18H22.3946ZM23.5935 8.89151C22.8683 6.18016 21.2173 3.84719 19 2.2521V13.485L23.5935 8.89151ZM18 1.60539C16.235 0.584367 14.1857 0 12 0C11.3383 0 10.689 0.0535652 10.0564 0.156596L18 8.10022V1.60539ZM9.17147 6.34315L8.82831 6H14V5.51443L17.6572 9.17159L18 8.82874V14H18.485L14.8281 17.6569L15.1713 18H10V18.4852L6.34327 14.8284L6 15.1717V10H5.51462L9.17147 6.34315ZM14 12C14 13.1046 13.1046 14 12 14C10.8954 14 10 13.1046 10 12C10 10.8954 10.8954 10 12 10C13.1046 10 14 10.8954 14 12Z" fill="#25D07D"/>
</svg>
