<svg width="24" height="24" viewBox="0 0 24 24" fill="none" xmlns="http://www.w3.org/2000/svg">
<mask id="path-1-inside-1_82_2761" fill="white">
<path fill-rule="evenodd" clip-rule="evenodd" d="M9.82806 2.94301C9.40739 3.22314 8.98744 3.5028 8.54262 3.68803C8.09467 3.87457 7.60164 3.97187 7.10836 4.06922C6.51986 4.18535 5.931 4.30157 5.41783 4.56947C5.24187 4.66133 5.07672 4.78115 4.92893 4.92893C4.78115 5.07671 4.66133 5.24187 4.56947 5.41783C4.30157 5.931 4.18536 6.51986 4.06922 7.10835C3.97187 7.60164 3.87457 8.09467 3.68803 8.54262C3.5028 8.98744 3.22314 9.40739 2.94301 9.82806C2.6047 10.3361 2.26568 10.8452 2.09143 11.4004C2.03202 11.5897 2 11.7911 2 12C2 12.2089 2.03203 12.4103 2.09143 12.5996C2.26568 13.1548 2.6047 13.6639 2.94301 14.1719C3.22314 14.5926 3.5028 15.0126 3.68803 15.4574C3.87457 15.9053 3.97187 16.3984 4.06922 16.8916C4.18536 17.4801 4.30157 18.069 4.56947 18.5822C4.66133 18.7581 4.78115 18.9233 4.92893 19.0711C5.07672 19.2189 5.24187 19.3387 5.41783 19.4305C5.931 19.6984 6.51986 19.8146 7.10835 19.9308C7.60164 20.0281 8.09467 20.1254 8.54262 20.312C8.98744 20.4972 9.40739 20.7769 9.82806 21.057C10.3361 21.3953 10.8452 21.7343 11.4004 21.9086C11.5897 21.968 11.7911 22 12 22C12.2089 22 12.4103 21.968 12.5996 21.9086C13.1548 21.7343 13.6639 21.3953 14.1719 21.057C14.5926 20.7769 15.0126 20.4972 15.4574 20.312C15.9053 20.1254 16.3984 20.0281 16.8916 19.9308C17.4801 19.8146 18.069 19.6984 18.5822 19.4305C18.7581 19.3387 18.9233 19.2189 19.0711 19.0711C19.2189 18.9233 19.3387 18.7581 19.4305 18.5822C19.6984 18.069 19.8146 17.4801 19.9308 16.8916C20.0281 16.3984 20.1254 15.9053 20.312 15.4574C20.4972 15.0126 20.7769 14.5926 21.057 14.1719C21.3953 13.6639 21.7343 13.1548 21.9086 12.5996C21.968 12.4103 22 12.2089 22 12C22 11.7911 21.968 11.5897 21.9086 11.4004C21.7343 10.8452 21.3953 10.3361 21.057 9.82806C20.7769 9.40739 20.4972 8.98744 20.312 8.54262C20.1254 8.09467 20.0281 7.60164 19.9308 7.10835C19.8146 6.51986 19.6984 5.931 19.4305 5.41783C19.3387 5.24187 19.2189 5.07672 19.0711 4.92893C18.9233 4.78115 18.7581 4.66133 18.5822 4.56947C18.069 4.30157 17.4801 4.18536 16.8916 4.06922C16.3984 3.97187 15.9053 3.87457 15.4574 3.68803C15.0126 3.5028 14.5926 3.22314 14.1719 2.94301C13.6639 2.6047 13.1548 2.26568 12.5996 2.09143C12.4103 2.03203 12.2089 2 12 2C11.7911 2 11.5897 2.03202 11.4004 2.09143C10.8452 2.26568 10.3361 2.6047 9.82806 2.94301ZM12 14C13.1046 14 14 13.1046 14 12C14 10.8954 13.1046 10 12 10C10.8954 10 10 10.8954 10 12C10 13.1046 10.8954 14 12 14Z"/>
</mask>
<path d="M8.54262 3.68803L7.77376 1.84172L7.77376 1.84172L8.54262 3.68803ZM9.82806 2.94301L10.9366 4.60769V4.60769L9.82806 2.94301ZM7.10836 4.06922L7.49558 6.03137H7.49558L7.10836 4.06922ZM5.41783 4.56947L6.3434 6.34241L6.3434 6.34241L5.41783 4.56947ZM4.92893 4.92893L6.34315 6.34315L6.34315 6.34314L4.92893 4.92893ZM4.56947 5.41783L2.79653 4.49225L2.79653 4.49225L4.56947 5.41783ZM4.06922 7.10835L2.10706 6.72113L2.10706 6.72113L4.06922 7.10835ZM3.68803 8.54262L5.53434 9.31148V9.31148L3.68803 8.54262ZM2.94301 9.82806L1.27833 8.71952H1.27833L2.94301 9.82806ZM2.09143 11.4004L3.99966 11.9993L3.99966 11.9993L2.09143 11.4004ZM2.09143 12.5996L0.183206 13.1985L0.183207 13.1985L2.09143 12.5996ZM2.94301 14.1719L1.27833 15.2805H1.27833L2.94301 14.1719ZM3.68803 15.4574L5.53434 14.6885H5.53434L3.68803 15.4574ZM4.06922 16.8916L6.03137 16.5044L4.06922 16.8916ZM4.56947 18.5822L2.79653 19.5077L2.79653 19.5078L4.56947 18.5822ZM5.41783 19.4305L6.3434 17.6576L6.3434 17.6576L5.41783 19.4305ZM7.10835 19.9308L6.72112 21.8929L6.72113 21.8929L7.10835 19.9308ZM8.54262 20.312L7.77377 22.1583H7.77377L8.54262 20.312ZM9.82806 21.057L10.9366 19.3923L10.9366 19.3923L9.82806 21.057ZM11.4004 21.9086L11.9993 20.0003L11.9993 20.0003L11.4004 21.9086ZM12.5996 21.9086L13.1985 23.8168L12.5996 21.9086ZM14.1719 21.057L13.0634 19.3923H13.0634L14.1719 21.057ZM15.4574 20.312L16.2262 22.1583L16.2262 22.1583L15.4574 20.312ZM16.8916 19.9308L16.5044 17.9686H16.5044L16.8916 19.9308ZM18.5822 19.4305L17.6566 17.6576L17.6566 17.6576L18.5822 19.4305ZM19.4305 18.5822L17.6576 17.6566L17.6576 17.6566L19.4305 18.5822ZM19.9308 16.8916L17.9686 16.5044L19.9308 16.8916ZM20.312 15.4574L22.1583 16.2262L22.1583 16.2262L20.312 15.4574ZM21.057 14.1719L22.7217 15.2805L22.7217 15.2805L21.057 14.1719ZM21.9086 12.5996L23.8168 13.1985L21.9086 12.5996ZM21.9086 11.4004L20.0003 11.9993L20.0003 11.9993L21.9086 11.4004ZM21.057 9.82806L19.3923 10.9366L19.3923 10.9366L21.057 9.82806ZM20.312 8.54262L22.1583 7.77377L22.1583 7.77376L20.312 8.54262ZM19.9308 7.10835L21.8929 6.72114L21.8929 6.72113L19.9308 7.10835ZM19.4305 5.41783L17.6576 6.3434L17.6576 6.3434L19.4305 5.41783ZM19.0711 4.92893L20.4853 3.51472L20.4853 3.51472L19.0711 4.92893ZM18.5822 4.56947L19.5078 2.79653L19.5077 2.79653L18.5822 4.56947ZM16.8916 4.06922L17.2789 2.10706L17.2789 2.10706L16.8916 4.06922ZM15.4574 3.68803L16.2262 1.84172V1.84172L15.4574 3.68803ZM14.1719 2.94301L15.2805 1.27833L15.2805 1.27833L14.1719 2.94301ZM12.5996 2.09143L12.0007 3.99966L12.0007 3.99966L12.5996 2.09143ZM11.4004 2.09143L11.9993 3.99966L11.9993 3.99966L11.4004 2.09143ZM9.31148 5.53434C9.96677 5.26146 10.5491 4.86575 10.9366 4.60769L8.71953 1.27833C8.2657 1.58054 8.00811 1.74413 7.77376 1.84172L9.31148 5.53434ZM7.49558 6.03137C7.95001 5.94169 8.64603 5.81145 9.31148 5.53434L7.77376 1.84172C7.54331 1.93769 7.25328 2.00204 6.72113 2.10706L7.49558 6.03137ZM6.3434 6.34241C6.55602 6.23141 6.84961 6.15885 7.49558 6.03137L6.72113 2.10706C6.19011 2.21186 5.30597 2.37172 4.49225 2.79653L6.3434 6.34241ZM6.34315 6.34314L6.3434 6.34241L4.49225 2.79653C4.13823 2.98135 3.80787 3.22157 3.51472 3.51472L6.34315 6.34314ZM6.34241 6.3434L6.34315 6.34315L3.51472 3.51472C3.22157 3.80787 2.98135 4.13823 2.79653 4.49225L6.34241 6.3434ZM6.03137 7.49558C6.15885 6.84961 6.23141 6.55602 6.34241 6.3434L2.79653 4.49225C2.37173 5.30597 2.21186 6.19011 2.10706 6.72113L6.03137 7.49558ZM5.53434 9.31148C5.81146 8.64602 5.94169 7.95001 6.03137 7.49558L2.10706 6.72113C2.00204 7.25328 1.93769 7.54331 1.84172 7.77376L5.53434 9.31148ZM4.60769 10.9366C4.86575 10.5491 5.26146 9.96677 5.53434 9.31148L1.84172 7.77376C1.74414 8.00811 1.58054 8.2657 1.27833 8.71952L4.60769 10.9366ZM3.99966 11.9993C4.07317 11.7651 4.23572 11.4952 4.60769 10.9366L1.27833 8.71952C0.973672 9.17703 0.458196 9.92532 0.183206 10.8015L3.99966 11.9993ZM4 12L3.99966 11.9993L0.183206 10.8015C0.0636755 11.1824 0 11.5856 0 12H4ZM3.99966 12.0007L4 12H0C0 12.4144 0.063676 12.8176 0.183206 13.1985L3.99966 12.0007ZM4.60769 13.0634C4.23572 12.5048 4.07317 12.2349 3.99966 12.0007L0.183207 13.1985C0.458197 14.0747 0.973672 14.823 1.27833 15.2805L4.60769 13.0634ZM5.53434 14.6885C5.26146 14.0332 4.86575 13.4509 4.60769 13.0634L1.27833 15.2805C1.58054 15.7343 1.74413 15.9919 1.84172 16.2262L5.53434 14.6885ZM6.03137 16.5044C5.94169 16.05 5.81145 15.354 5.53434 14.6885L1.84172 16.2262C1.93769 16.4567 2.00204 16.7467 2.10706 17.2789L6.03137 16.5044ZM6.34241 17.6566C6.23141 17.444 6.15885 17.1504 6.03137 16.5044L2.10706 17.2789C2.21186 17.8099 2.37173 18.694 2.79653 19.5077L6.34241 17.6566ZM6.34315 17.6569L6.34241 17.6566L2.79653 19.5078C2.98136 19.8618 3.22157 20.1921 3.51472 20.4853L6.34315 17.6569ZM6.3434 17.6576L6.34315 17.6569L3.51472 20.4853C3.80787 20.7784 4.13823 21.0187 4.49226 21.2035L6.3434 17.6576ZM7.49558 17.9686C6.84961 17.8411 6.55603 17.7686 6.3434 17.6576L4.49225 21.2035C5.30597 21.6283 6.19011 21.7881 6.72112 21.8929L7.49558 17.9686ZM9.31148 18.4657C8.64603 18.1885 7.95001 18.0583 7.49558 17.9686L6.72113 21.8929C7.25328 21.998 7.54331 22.0623 7.77377 22.1583L9.31148 18.4657ZM10.9366 19.3923C10.5491 19.1343 9.96677 18.7385 9.31148 18.4657L7.77377 22.1583C8.00811 22.2559 8.2657 22.4195 8.71953 22.7217L10.9366 19.3923ZM11.9993 20.0003C11.7651 19.9268 11.4952 19.7643 10.9366 19.3923L8.71952 22.7217C9.17703 23.0263 9.92532 23.5418 10.8015 23.8168L11.9993 20.0003ZM12 20L11.9993 20.0003L10.8015 23.8168C11.1824 23.9363 11.5856 24 12 24V20ZM12.0007 20.0003L12 20V24C12.4144 24 12.8176 23.9363 13.1985 23.8168L12.0007 20.0003ZM13.0634 19.3923C12.5048 19.7643 12.2349 19.9268 12.0007 20.0003L13.1985 23.8168C14.0747 23.5418 14.823 23.0263 15.2805 22.7217L13.0634 19.3923ZM14.6885 18.4657C14.0332 18.7385 13.4509 19.1343 13.0634 19.3923L15.2805 22.7217C15.7343 22.4195 15.9919 22.2559 16.2262 22.1583L14.6885 18.4657ZM16.5044 17.9686C16.05 18.0583 15.354 18.1885 14.6885 18.4657L16.2262 22.1583C16.4567 22.0623 16.7467 21.998 17.2789 21.8929L16.5044 17.9686ZM17.6566 17.6576C17.444 17.7686 17.1504 17.8411 16.5044 17.9686L17.2789 21.8929C17.8099 21.7881 18.694 21.6283 19.5077 21.2035L17.6566 17.6576ZM17.6569 17.6569L17.6566 17.6576L19.5077 21.2035C19.8618 21.0186 20.1921 20.7784 20.4853 20.4853L17.6569 17.6569ZM17.6576 17.6566L17.6569 17.6569L20.4853 20.4853C20.7784 20.1921 21.0186 19.8618 21.2035 19.5077L17.6576 17.6566ZM17.9686 16.5044C17.8411 17.1504 17.7686 17.444 17.6576 17.6566L21.2035 19.5077C21.6283 18.694 21.7881 17.8099 21.8929 17.2789L17.9686 16.5044ZM18.4657 14.6885C18.1885 15.354 18.0583 16.05 17.9686 16.5044L21.8929 17.2789C21.998 16.7467 22.0623 16.4567 22.1583 16.2262L18.4657 14.6885ZM19.3923 13.0634C19.1343 13.4509 18.7385 14.0332 18.4657 14.6885L22.1583 16.2262C22.2559 15.9919 22.4195 15.7343 22.7217 15.2805L19.3923 13.0634ZM20.0003 12.0007C19.9268 12.2349 19.7643 12.5048 19.3923 13.0634L22.7217 15.2805C23.0263 14.823 23.5418 14.0747 23.8168 13.1985L20.0003 12.0007ZM20 12L20.0003 12.0007L23.8168 13.1985C23.9363 12.8176 24 12.4144 24 12H20ZM20.0003 11.9993L20 12H24C24 11.5856 23.9363 11.1824 23.8168 10.8015L20.0003 11.9993ZM19.3923 10.9366C19.7643 11.4952 19.9268 11.7651 20.0003 11.9993L23.8168 10.8015C23.5418 9.92532 23.0263 9.17703 22.7217 8.71952L19.3923 10.9366ZM18.4657 9.31148C18.7385 9.96677 19.1343 10.5491 19.3923 10.9366L22.7217 8.71953C22.4195 8.2657 22.2559 8.00811 22.1583 7.77377L18.4657 9.31148ZM17.9686 7.49557C18.0583 7.95001 18.1885 8.64603 18.4657 9.31148L22.1583 7.77376C22.0623 7.54331 21.998 7.25328 21.8929 6.72114L17.9686 7.49557ZM17.6576 6.3434C17.7686 6.55602 17.8411 6.84961 17.9686 7.49558L21.8929 6.72113C21.7881 6.19012 21.6283 5.30597 21.2035 4.49225L17.6576 6.3434ZM17.6569 6.34315L17.6576 6.3434L21.2035 4.49226C21.0186 4.13822 20.7784 3.80786 20.4853 3.51472L17.6569 6.34315ZM17.6566 6.34241L17.6569 6.34315L20.4853 3.51472C20.1921 3.22157 19.8618 2.98136 19.5078 2.79653L17.6566 6.34241ZM16.5044 6.03137C17.1504 6.15885 17.444 6.23141 17.6566 6.34241L19.5077 2.79653C18.694 2.37173 17.8099 2.21186 17.2789 2.10706L16.5044 6.03137ZM14.6885 5.53434C15.354 5.81145 16.05 5.94169 16.5044 6.03137L17.2789 2.10706C16.7467 2.00204 16.4567 1.93769 16.2262 1.84172L14.6885 5.53434ZM13.0634 4.60769C13.4509 4.86575 14.0332 5.26146 14.6885 5.53434L16.2262 1.84172C15.9919 1.74413 15.7343 1.58054 15.2805 1.27833L13.0634 4.60769ZM12.0007 3.99966C12.2349 4.07317 12.5048 4.23572 13.0634 4.60769L15.2805 1.27833C14.823 0.973672 14.0747 0.458197 13.1985 0.183206L12.0007 3.99966ZM12 4L12.0007 3.99966L13.1985 0.183207C12.8176 0.0636758 12.4144 0 12 0V4ZM11.9993 3.99966L12 4V0C11.5856 0 11.1824 0.0636758 10.8015 0.183206L11.9993 3.99966ZM10.9366 4.60769C11.4952 4.23572 11.7651 4.07317 11.9993 3.99966L10.8015 0.183206C9.92532 0.458196 9.17703 0.973672 8.71952 1.27833L10.9366 4.60769ZM12 12V16C14.2091 16 16 14.2091 16 12H12ZM12 12H16C16 9.79086 14.2091 8 12 8V12ZM12 12V8C9.79086 8 8 9.79086 8 12H12ZM12 12H8C8 14.2091 9.79086 16 12 16V12Z" fill="#BFBFBF" mask="url(#path-1-inside-1_82_2761)"/>
</svg>
