<svg width="48" height="48" viewBox="0 0 48 48" fill="none" xmlns="http://www.w3.org/2000/svg">
<g filter="url(#filter0_d_1481_1580)">
<circle cx="24" cy="20" r="20" fill="#FAFAFA"/>
<path d="M33.0469 20.05V28C33.0469 28.55 32.8511 29.0208 32.4594 29.4125C32.0678 29.8042 31.5969 30 31.0469 30H17.0469C16.4969 30 16.0261 29.8042 15.6344 29.4125C15.2428 29.0208 15.0469 28.55 15.0469 28V20.05C14.6636 19.7 14.3678 19.25 14.1594 18.7C13.9511 18.15 13.9469 17.55 14.1469 16.9L15.1969 13.5C15.3303 13.0667 15.5678 12.7083 15.9094 12.425C16.2511 12.1417 16.6469 12 17.0969 12H30.9969C31.4469 12 31.8386 12.1375 32.1719 12.4125C32.5053 12.6875 32.7469 13.05 32.8969 13.5L33.9469 16.9C34.1469 17.55 34.1428 18.1417 33.9344 18.675C33.7261 19.2083 33.4303 19.6667 33.0469 20.05ZM26.2469 19C26.6969 19 27.0386 18.8458 27.2719 18.5375C27.5053 18.2292 27.5969 17.8833 27.5469 17.5L26.9969 14H25.0469V17.7C25.0469 18.05 25.1636 18.3542 25.3969 18.6125C25.6303 18.8708 25.9136 19 26.2469 19ZM21.7469 19C22.1303 19 22.4428 18.8708 22.6844 18.6125C22.9261 18.3542 23.0469 18.05 23.0469 17.7V14H21.0969L20.5469 17.5C20.4803 17.9 20.5678 18.25 20.8094 18.55C21.0511 18.85 21.3636 19 21.7469 19ZM17.2969 19C17.5969 19 17.8594 18.8917 18.0844 18.675C18.3094 18.4583 18.4469 18.1833 18.4969 17.85L19.0469 14H17.0969L16.0969 17.35C15.9969 17.6833 16.0511 18.0417 16.2594 18.425C16.4678 18.8083 16.8136 19 17.2969 19ZM30.7969 19C31.2803 19 31.6303 18.8083 31.8469 18.425C32.0636 18.0417 32.1136 17.6833 31.9969 17.35L30.9469 14H29.0469L29.5969 17.85C29.6469 18.1833 29.7844 18.4583 30.0094 18.675C30.2344 18.8917 30.4969 19 30.7969 19ZM17.0469 28H31.0469V20.95C30.9636 20.9833 30.9094 21 30.8844 21H30.7969C30.3469 21 29.9511 20.925 29.6094 20.775C29.2678 20.625 28.9303 20.3833 28.5969 20.05C28.2969 20.35 27.9553 20.5833 27.5719 20.75C27.1886 20.9167 26.7803 21 26.3469 21C25.8969 21 25.4761 20.9167 25.0844 20.75C24.6928 20.5833 24.3469 20.35 24.0469 20.05C23.7636 20.35 23.4344 20.5833 23.0594 20.75C22.6844 20.9167 22.2803 21 21.8469 21C21.3636 21 20.9261 20.9167 20.5344 20.75C20.1428 20.5833 19.7969 20.35 19.4969 20.05C19.1469 20.4 18.8011 20.6458 18.4594 20.7875C18.1178 20.9292 17.7303 21 17.2969 21H17.1844C17.1428 21 17.0969 20.9833 17.0469 20.95V28Z" fill="#81A895"/>
</g>
<defs>
<filter id="filter0_d_1481_1580" x="0" y="0" width="48" height="48" filterUnits="userSpaceOnUse" color-interpolation-filters="sRGB">
<feFlood flood-opacity="0" result="BackgroundImageFix"/>
<feColorMatrix in="SourceAlpha" type="matrix" values="0 0 0 0 0 0 0 0 0 0 0 0 0 0 0 0 0 0 127 0" result="hardAlpha"/>
<feOffset dy="4"/>
<feGaussianBlur stdDeviation="2"/>
<feComposite in2="hardAlpha" operator="out"/>
<feColorMatrix type="matrix" values="0 0 0 0 0 0 0 0 0 0 0 0 0 0 0 0 0 0 0.25 0"/>
<feBlend mode="normal" in2="BackgroundImageFix" result="effect1_dropShadow_1481_1580"/>
<feBlend mode="normal" in="SourceGraphic" in2="effect1_dropShadow_1481_1580" result="shape"/>
</filter>
</defs>
</svg>
