<svg width="24" height="24" viewBox="0 0 24 24" fill="none" xmlns="http://www.w3.org/2000/svg">
<path d="M14.1425 18.0102L14.0716 18H14H9.5C5.99125 18 3 14.6746 3 11C3 7.32539 5.99125 4 9.5 4H14.5C17.998 4 20.9351 7.31359 20.9351 11C20.9351 12.3887 20.5802 14.0638 19.9721 15.0097C19.6386 15.5285 19.5121 16.2135 19.7564 16.865L19.7861 16.9442L19.8286 17.0172L20.9807 18.9949L14.1425 18.0102Z" stroke="#25D07D" stroke-width="2"/>
<path fill-rule="evenodd" clip-rule="evenodd" d="M11 9C11 8.44772 11.4477 8 12 8C12.6313 8 13.0368 8.50551 13.0033 8.91918C12.9902 9.08002 12.9482 9.16885 12.8846 9.25441C12.7991 9.36929 12.6596 9.4979 12.3861 9.71065C12.3158 9.76533 12.1605 9.85011 11.9664 9.93594C11.8801 9.97409 11.8021 10.0056 11.746 10.0273C11.7182 10.0381 11.6964 10.0463 11.6824 10.0514L11.6677 10.0568L11.666 10.0574L11.6657 10.0575L11.6654 10.0576L11.6654 10.0577L11.6653 10.0577L11 10.2931V11V12C11 12.5523 11.4477 13 12 13C12.5523 13 13 12.5523 13 12V11.6605C13.1943 11.5651 13.4214 11.4391 13.6139 11.2894C14.1989 10.8344 14.9031 10.2361 14.9967 9.08082C15.1417 7.29257 13.5778 6 12 6C10.3431 6 9 7.34315 9 9C9 9.55228 9.44772 10 10 10C10.5523 10 11 9.55228 11 9ZM12 16C12.5523 16 13 15.5523 13 15C13 14.4477 12.5523 14 12 14C11.4477 14 11 14.4477 11 15C11 15.5523 11.4477 16 12 16Z" fill="#25D07D"/>
</svg>
